<svg xmlns="http://www.w3.org/2000/svg" width="64" height="16" viewBox="0 0 64 16" fill="none"><path d="M8.46476 15.3513L3.88867 7.9927L8.44695 1.05728H11.1908L6.33707 7.86798L11.4462 15.3513H8.46476Z" fill="white"/><path d="M4.00879 15.3513V12.8271H-0.000119686V15.3513H4.00879Z" fill="white"/><path d="M18.1914 15.3482C17.4194 15.3482 16.7111 15.2205 16.086 14.9695C15.4609 14.7186 14.919 14.3712 14.4736 13.9391C14.0296 13.513 13.6822 13.0037 13.4431 12.4217C13.2026 11.8396 13.0793 11.2056 13.0793 10.539V10.1485C13.0793 9.38082 13.2011 8.67258 13.4401 8.04303C13.6792 7.41497 14.0162 6.86857 14.4424 6.4172C14.867 5.96731 15.3793 5.61245 15.9643 5.36301C16.5493 5.11356 17.1966 4.98587 17.8885 4.98587C18.5805 4.98587 19.2531 5.10465 19.8099 5.33925C20.3622 5.57236 20.8388 5.90346 21.2249 6.32514C21.6035 6.74682 21.8989 7.26501 22.0994 7.86486C22.3028 8.47214 22.4067 9.15514 22.4067 9.89456V10.7498H15.2397V11.1076L15.2456 11.1388C15.3422 11.5887 15.4713 11.9599 15.6287 12.242C15.7876 12.5286 16.0044 12.7899 16.2701 13.02C16.5433 13.2576 16.8596 13.4432 17.2115 13.5724C17.5619 13.7015 17.9479 13.7669 18.3592 13.7669C18.9279 13.7669 19.4877 13.6585 20.0222 13.4432C20.4572 13.268 20.8314 13.02 21.1387 12.7038L22.0994 13.7416C21.7787 14.1188 21.3125 14.4707 20.7082 14.7899C20.0058 15.1626 19.1595 15.3511 18.1914 15.3511V15.3482ZM17.8693 6.58944C17.5248 6.58944 17.2041 6.6518 16.9145 6.77355C16.6235 6.89678 16.3652 7.07644 16.1499 7.30807C15.9361 7.5293 15.7534 7.79953 15.6094 8.10836C15.4698 8.40978 15.3629 8.74831 15.2946 9.11653L15.2278 9.46842H20.3355V8.95617C20.3355 8.63249 20.2761 8.32217 20.1573 8.03264C20.04 7.74459 19.8737 7.4907 19.6658 7.2754C19.452 7.0616 19.1937 6.89381 18.8952 6.77206C18.5968 6.65031 18.2523 6.58944 17.8707 6.58944H17.8693Z" fill="white"/><path d="M24.04 15.3511V13.7387H27.2041V2.56866H24.04V0.648834H29.3541V13.7387H32.3815V15.3511H24.04Z" fill="white"/><path d="M38.5806 15.3511C37.8234 15.3511 37.1478 15.2516 36.5732 15.0542C36.0015 14.8582 35.519 14.5998 35.1374 14.2865C34.7603 13.9807 34.4722 13.6317 34.2822 13.2457C34.1411 12.9621 34.052 12.6755 34.0149 12.3905H36.0268C36.0728 12.6147 36.1545 12.8181 36.2732 12.9948C36.4351 13.2383 36.6459 13.4343 36.8998 13.5813C37.1359 13.7253 37.415 13.8322 37.7239 13.8975C38.0193 13.9599 38.3282 13.9911 38.64 13.9911C39.0141 13.9911 39.3467 13.9569 39.6303 13.8901C39.9243 13.8218 40.1723 13.7253 40.3668 13.605C40.5717 13.4729 40.7276 13.3184 40.833 13.1432C40.9414 12.9606 40.9963 12.7587 40.9963 12.5419C40.9963 12.3251 40.9444 12.1291 40.8419 11.9584C40.7395 11.7906 40.5761 11.6421 40.343 11.504C40.1173 11.3838 39.8456 11.2798 39.5026 11.1818C39.176 11.0883 38.7603 10.9948 38.2643 10.9027C37.6675 10.7839 37.1121 10.631 36.6162 10.4513C36.1337 10.2761 35.7164 10.0608 35.3764 9.81288C35.0438 9.57531 34.7855 9.30063 34.6014 8.99328C34.4247 8.69633 34.3356 8.34592 34.3356 7.95394C34.3356 7.56195 34.4291 7.19373 34.6147 6.84184C34.8018 6.48549 35.0765 6.16626 35.4314 5.89455C35.7922 5.61689 36.2421 5.39417 36.7647 5.22936C37.2933 5.06307 37.9006 4.97992 38.5702 4.97992C39.274 4.97992 39.9124 5.06307 40.4692 5.22639C41.0201 5.38823 41.4908 5.61095 41.8724 5.8886C42.2346 6.16329 42.5182 6.4944 42.7113 6.86856C42.8597 7.15512 42.9503 7.46544 42.9845 7.7921H40.8538C40.836 7.68816 40.8078 7.58719 40.7706 7.4892C40.6979 7.30063 40.588 7.12691 40.4455 6.97547C40.2465 6.7765 39.9867 6.6206 39.6689 6.50924C39.3616 6.40085 38.9919 6.34592 38.5687 6.34592C38.2139 6.34592 37.8946 6.38155 37.6244 6.45282C37.3408 6.52706 37.1017 6.63694 36.9162 6.77651C36.7409 6.9042 36.6014 7.06158 36.5049 7.23976C36.4069 7.42238 36.3579 7.61838 36.3579 7.82476C36.3579 8.03115 36.4009 8.21674 36.4856 8.38898C36.5747 8.57309 36.7306 8.73493 36.9488 8.86856C37.1255 8.99031 37.372 9.10019 37.6912 9.1967C37.9911 9.28875 38.3742 9.36893 38.8286 9.43574C39.4462 9.53671 40.0312 9.66886 40.5643 9.82624C41.081 9.98066 41.5323 10.1796 41.905 10.4172C42.2599 10.6503 42.5435 10.9354 42.7439 11.2635C42.9384 11.5827 43.0379 11.9718 43.0379 12.4216C43.0379 12.8359 42.9384 13.2219 42.7395 13.5679C42.5375 13.9213 42.2465 14.2316 41.8753 14.4914C41.4893 14.7572 41.0141 14.968 40.4633 15.1165C39.905 15.268 39.271 15.3452 38.5791 15.3452L38.5806 15.3511Z" fill="white"/><path d="M48.0743 15.3511C47.565 15.3511 47.0943 15.2724 46.6741 15.1165C46.2673 14.9651 45.9139 14.7201 45.6229 14.389C45.3259 14.0564 45.0913 13.6213 44.9265 13.0943C44.7573 12.5568 44.6711 11.8945 44.6711 11.1269V5.17443H46.7914V11.1462C46.7914 11.5946 46.8241 11.9807 46.8909 12.291C46.9622 12.6265 47.0809 12.9042 47.2443 13.115C47.4135 13.3407 47.6407 13.5055 47.9169 13.6035C48.1693 13.6926 48.4752 13.7372 48.8256 13.7372C49.1344 13.7372 49.421 13.7045 49.6749 13.6406C49.9347 13.5753 50.1693 13.4773 50.3712 13.3496C50.5479 13.2338 50.7038 13.0972 50.8389 12.9398C50.9711 12.7854 51.0869 12.6102 51.1819 12.4202L51.2131 12.3578V5.17294H53.3438V15.1447H51.4477L51.32 13.9257L51.2992 13.6941C50.9666 14.1826 50.4172 14.5954 49.954 14.8715C49.4982 15.1418 48.6177 15.3496 48.0757 15.3496L48.0743 15.3511Z" fill="white"/><path d="M59.5428 15.3511C58.7855 15.3511 58.1099 15.2516 57.5353 15.0542C56.9637 14.8582 56.4811 14.5998 56.0995 14.2865C55.7224 13.9807 55.4344 13.6317 55.2443 13.2457C55.1033 12.9621 55.0142 12.6755 54.9771 12.3905H56.9889C57.035 12.6147 57.1166 12.8181 57.2354 12.9948C57.3972 13.2383 57.6081 13.4343 57.862 13.5813C58.0981 13.7253 58.3772 13.8322 58.686 13.8975C58.9815 13.9599 59.2903 13.9911 59.6021 13.9911C59.9763 13.9911 60.3089 13.9569 60.5925 13.8901C60.8865 13.8218 61.1344 13.7253 61.3289 13.605C61.5338 13.4729 61.6897 13.3184 61.7952 13.1432C61.9036 12.9606 61.9585 12.7587 61.9585 12.5419C61.9585 12.3251 61.9065 12.1291 61.8041 11.9584C61.7016 11.7906 61.5383 11.6421 61.3052 11.504C61.0795 11.3838 60.8078 11.2798 60.4648 11.1818C60.1381 11.0883 59.7224 10.9948 59.2265 10.9027C58.6296 10.7839 58.0743 10.631 57.5784 10.4513C57.0958 10.2761 56.6786 10.0608 56.3386 9.81288C56.006 9.57531 55.7476 9.30063 55.5635 8.99328C55.3868 8.69633 55.2978 8.34592 55.2978 7.95394C55.2978 7.56195 55.3913 7.19373 55.5769 6.84184C55.764 6.48549 56.0387 6.16626 56.3935 5.89455C56.7543 5.61689 57.2042 5.39417 57.7269 5.22936C58.2554 5.06307 58.8627 4.97992 59.5324 4.97992C60.2361 4.97992 60.8746 5.06307 61.4314 5.22639C61.9822 5.38823 62.4529 5.61095 62.8345 5.8886C63.1968 6.16329 63.4804 6.4944 63.6734 6.86856C63.8219 7.15512 63.9125 7.46544 63.9466 7.7921H61.816C61.7981 7.68816 61.7699 7.58719 61.7328 7.4892C61.6601 7.30063 61.5502 7.12691 61.4076 6.97547C61.2087 6.7765 60.9488 6.6206 60.6311 6.50924C60.3237 6.40085 59.954 6.34592 59.5309 6.34592C59.176 6.34592 58.8568 6.38155 58.5866 6.45282C58.303 6.52706 58.0639 6.63694 57.8783 6.77651C57.7031 6.9042 57.5635 7.06158 57.467 7.23976C57.369 7.42238 57.32 7.61838 57.32 7.82476C57.32 8.03115 57.3631 8.21674 57.4477 8.38898C57.5368 8.57309 57.6927 8.73493 57.911 8.86856C58.0877 8.99031 58.3341 9.10019 58.6534 9.1967C58.9533 9.28875 59.3364 9.36893 59.7907 9.43574C60.4084 9.53671 60.9934 9.66886 61.5264 9.82624C62.0431 9.98066 62.4945 10.1796 62.8672 10.4172C63.222 10.6503 63.5056 10.9354 63.7061 11.2635C63.9006 11.5827 64.0001 11.9718 64.0001 12.4216C64.0001 12.8359 63.9006 13.2219 63.7016 13.5679C63.4997 13.9213 63.2087 14.2316 62.8375 14.4914C62.4514 14.7572 61.9763 14.968 61.4255 15.1165C60.8672 15.268 60.2332 15.3452 59.5413 15.3452L59.5428 15.3511Z" fill="white"/></svg>
